<?xml version="1.0" encoding="UTF-8" standalone="no"?>
<!DOCTYPE svg PUBLIC "-//W3C//DTD SVG 1.1//EN" "http://www.w3.org/Graphics/SVG/1.1/DTD/svg11.dtd">
<svg version="1.1" xmlns="http://www.w3.org/2000/svg" xmlns:xlink="http://www.w3.org/1999/xlink" preserveAspectRatio="xMidYMid meet" viewBox="0 0 640 640" width="640" height="640"><defs><path d="M0 334.51C0 165.8 144.08 29.03 321.81 29.03C321.81 29.03 321.81 29.03 321.81 29.03C407.16 29.03 489.01 61.21 549.36 118.5C609.71 175.79 643.62 253.49 643.62 334.51C643.62 334.51 643.62 334.51 643.62 334.51C643.62 503.23 499.54 640 321.81 640C321.81 640 321.81 640 321.81 640C144.08 640 0 503.23 0 334.51C0 334.51 0 334.51 0 334.51Z" id="eFcoW3qa"></path><path d="M36.59 312.01C36.59 223.95 100.93 152.57 180.29 152.57C180.29 152.57 180.29 152.57 180.29 152.57C218.41 152.57 254.96 169.37 281.91 199.27C308.85 229.17 323.99 269.72 323.99 312.01C323.99 312.01 323.99 312.01 323.99 312.01C323.99 400.07 259.66 471.45 180.29 471.45C180.29 471.45 180.29 471.45 180.29 471.45C100.93 471.45 36.59 400.07 36.59 312.01C36.59 312.01 36.59 312.01 36.59 312.01Z" id="fgjNii1x1"></path><path d="M36.59 312.01C36.59 223.95 100.93 152.57 180.29 152.57C180.29 152.57 180.29 152.57 180.29 152.57C218.41 152.57 254.96 169.37 281.91 199.27C308.85 229.17 323.99 269.72 323.99 312.01C323.99 312.01 323.99 312.01 323.99 312.01C323.99 400.07 259.66 471.45 180.29 471.45C180.29 471.45 180.29 471.45 180.29 471.45C100.93 471.45 36.59 400.07 36.59 312.01C36.59 312.01 36.59 312.01 36.59 312.01Z" id="b8YoTgOMV"></path><path d="M81.27 312.01C81.27 249.66 125.6 199.11 180.29 199.11C180.29 199.11 180.29 199.11 180.29 199.11C206.56 199.11 231.74 211 250.32 232.18C268.89 253.35 279.32 282.07 279.32 312.01C279.32 312.01 279.32 312.01 279.32 312.01C279.32 374.36 234.98 424.91 180.29 424.91C180.29 424.91 180.29 424.91 180.29 424.91C125.6 424.91 81.27 374.36 81.27 312.01C81.27 312.01 81.27 312.01 81.27 312.01Z" id="cqsKRRAB"></path><path d="M81.27 312.01C81.27 249.66 125.6 199.11 180.29 199.11C180.29 199.11 180.29 199.11 180.29 199.11C206.56 199.11 231.74 211 250.32 232.18C268.89 253.35 279.32 282.07 279.32 312.01C279.32 312.01 279.32 312.01 279.32 312.01C279.32 374.36 234.98 424.91 180.29 424.91C180.29 424.91 180.29 424.91 180.29 424.91C125.6 424.91 81.27 374.36 81.27 312.01C81.27 312.01 81.27 312.01 81.27 312.01Z" id="a34pWo5sUC"></path><path d="M323.99 312.01C323.99 223.95 388.33 152.57 467.7 152.57C467.7 152.57 467.7 152.57 467.7 152.57C505.81 152.57 542.36 169.37 569.31 199.27C596.26 229.17 611.4 269.72 611.4 312.01C611.4 312.01 611.4 312.01 611.4 312.01C611.4 400.07 547.06 471.45 467.7 471.45C467.7 471.45 467.7 471.45 467.7 471.45C388.33 471.45 323.99 400.07 323.99 312.01C323.99 312.01 323.99 312.01 323.99 312.01Z" id="aDsWa1AB"></path><path d="M323.99 312.01C323.99 223.95 388.33 152.57 467.7 152.57C467.7 152.57 467.7 152.57 467.7 152.57C505.81 152.57 542.36 169.37 569.31 199.27C596.26 229.17 611.4 269.72 611.4 312.01C611.4 312.01 611.4 312.01 611.4 312.01C611.4 400.07 547.06 471.45 467.7 471.45C467.7 471.45 467.7 471.45 467.7 471.45C388.33 471.45 323.99 400.07 323.99 312.01C323.99 312.01 323.99 312.01 323.99 312.01Z" id="c2cIfVGPCI"></path><path d="M368.67 312.01C368.67 249.66 413.01 199.11 467.7 199.11C467.7 199.11 467.7 199.11 467.7 199.11C493.96 199.11 519.15 211 537.72 232.18C556.29 253.35 566.72 282.07 566.72 312.01C566.72 312.01 566.72 312.01 566.72 312.01C566.72 374.36 522.39 424.91 467.7 424.91C467.7 424.91 467.7 424.91 467.7 424.91C413.01 424.91 368.67 374.36 368.67 312.01C368.67 312.01 368.67 312.01 368.67 312.01Z" id="c1Im0uEjug"></path><path d="M368.67 312.01C368.67 249.66 413.01 199.11 467.7 199.11C467.7 199.11 467.7 199.11 467.7 199.11C493.96 199.11 519.15 211 537.72 232.18C556.29 253.35 566.72 282.07 566.72 312.01C566.72 312.01 566.72 312.01 566.72 312.01C566.72 374.36 522.39 424.91 467.7 424.91C467.7 424.91 467.7 424.91 467.7 424.91C413.01 424.91 368.67 374.36 368.67 312.01C368.67 312.01 368.67 312.01 368.67 312.01Z" id="b7fXmWVZS"></path><path d="M88.04 157.48L131.83 157.48L131.83 498.81L88.04 498.81L88.04 157.48Z" id="c7QeKB5Szx"></path><path d="M482.69 293.86L482.69 334.06L368.66 334.06L368.66 293.86L482.69 293.86Z" id="cICZVYKbJ"></path><path d="M514.25 152.57L558.05 152.57L558.05 471.45L514.25 471.45L514.25 152.57Z" id="c5jxV30ZF"></path><path d="M7.36 334.06C7.36 171.25 147.42 39.26 320.2 39.26C320.2 39.26 320.2 39.26 320.2 39.26C403.17 39.26 482.74 70.32 541.41 125.61C600.08 180.89 633.04 255.88 633.04 334.06C633.04 334.06 633.04 334.06 633.04 334.06C633.04 496.88 492.98 628.87 320.2 628.87C320.2 628.87 320.2 628.87 320.2 628.87C147.42 628.87 7.36 496.88 7.36 334.06C7.36 334.06 7.36 334.06 7.36 334.06Z" id="a85b9wwKE"></path><path d="M179.18 82.53L486.15 82.53L486.15 144.54L179.18 144.54L179.18 82.53Z" id="ea7jEYang"></path><path d="M193.25 123.87C192.97 123.58 192.83 123.21 192.83 122.75C192.83 109.53 192.83 102.19 192.83 100.72C192.83 100.04 193.2 99.72 193.25 99.61C193.67 99.18 194.2 99.22 194.3 99.18C194.96 99.18 195.26 99.57 195.36 99.61C195.64 99.9 195.78 100.27 195.78 100.72L195.78 110.21L210.48 110.21C210.48 104.52 210.48 101.36 210.48 100.72C210.48 100.04 210.88 99.72 210.92 99.61C211.36 99.18 211.88 99.22 211.98 99.18C212.64 99.18 212.94 99.57 213.04 99.61C213.31 99.9 213.44 100.27 213.44 100.72C213.44 113.94 213.44 121.28 213.44 122.75C213.44 123.43 213.08 123.75 213.04 123.87C212.64 124.3 212.09 124.26 211.98 124.3C211.36 124.3 211.03 123.91 210.92 123.87C210.63 123.58 210.48 123.21 210.48 122.75L210.48 112.94L195.78 112.94C195.78 118.83 195.78 122.1 195.78 122.75C195.78 123.43 195.41 123.75 195.36 123.87C195.1 124.15 194.74 124.3 194.3 124.3C193.67 124.04 193.32 123.89 193.25 123.87ZM222.64 123.3C220.7 122.15 219.89 120.45 219.59 120.13C218.49 118.11 218.6 115.97 218.49 115.51C218.49 112.87 219.48 111.33 219.59 110.87C220.7 108.85 222.33 108.04 222.64 107.72C224.59 106.57 226.65 106.68 227.1 106.57C229.58 106.57 231.07 107.61 231.51 107.72C233.45 108.85 234.26 110.56 234.56 110.87C235.68 112.87 235.57 115.05 235.68 115.51C235.68 118.11 234.68 119.67 234.56 120.13C233.47 122.15 231.84 122.98 231.53 123.3C230.25 124.05 228.78 124.43 227.1 124.43C224.42 123.75 222.94 123.38 222.64 123.3ZM230.07 120.96C231.39 120.15 231.93 118.97 232.14 118.75C232.88 117.36 232.81 115.83 232.88 115.51C232.88 113.68 232.21 112.59 232.14 112.27C231.39 110.85 230.28 110.28 230.07 110.06C228.78 109.25 227.39 109.33 227.1 109.25C225.41 109.25 224.4 109.98 224.1 110.06C222.79 110.85 222.24 112.05 222.04 112.27C221.29 113.68 221.36 115.19 221.29 115.51C221.29 117.36 221.96 118.43 222.04 118.75C222.79 120.15 223.89 120.74 224.1 120.96C224.98 121.49 225.97 121.75 227.1 121.75C228.88 121.28 229.87 121.01 230.07 120.96ZM243.79 123.53C242.07 122.56 241.34 121.01 241.07 120.73C240.41 119.5 240.08 118.01 240.08 116.26C240.08 111.41 240.08 108.71 240.08 108.17C240.08 107.53 240.46 107.21 240.5 107.1C240.92 106.66 241.44 106.71 241.54 106.66C242.17 106.66 242.48 107.05 242.59 107.1C242.87 107.39 243.01 107.75 243.01 108.17C243.01 113.03 243.01 115.73 243.01 116.26C243.01 118.11 243.61 119.01 243.68 119.32C244.38 120.53 245.36 120.95 245.54 121.13C246.71 121.73 247.91 121.67 248.17 121.73C249.58 121.73 250.43 121.21 250.68 121.15C251.79 120.56 252.27 119.76 252.45 119.6C252.89 118.96 253.1 118.23 253.1 117.42C254.22 117.42 254.84 117.42 254.97 117.42C254.95 119.41 254.08 120.66 253.98 121.02C253.01 122.62 251.63 123.29 251.37 123.55C250.29 124.16 249.06 124.47 247.68 124.47C245.35 123.9 244.05 123.59 243.79 123.53ZM253.51 123.88C253.24 123.61 253.1 123.24 253.1 122.79C253.1 114.02 253.1 109.15 253.1 108.17C253.1 107.49 253.47 107.19 253.51 107.08C253.91 106.66 254.43 106.71 254.53 106.66C255.19 106.66 255.48 107.04 255.59 107.08C255.87 107.36 256.01 107.72 256.01 108.17C256.01 116.94 256.01 121.82 256.01 122.79C256.01 123.47 255.63 123.78 255.59 123.88C255.32 124.16 254.97 124.3 254.53 124.3C253.92 124.05 253.57 123.91 253.51 123.88ZM263.81 123.75C261.98 123.07 261.21 122.12 260.92 121.94C260.48 121.47 260.59 120.99 260.56 120.89C260.65 120.28 261.08 119.99 261.14 119.89C261.71 119.43 262.14 119.55 262.26 119.51C262.82 119.57 263.11 119.97 263.2 120.02C263.83 120.73 264.82 121.12 264.99 121.24C266.18 121.75 267.39 121.7 267.66 121.75C269.61 121.75 270.29 121.16 270.58 121.09C271.57 120.41 271.5 119.55 271.61 119.38C271.61 118.34 270.73 117.8 270.64 117.62C269.67 116.91 267.58 116.57 267.24 116.45C264.1 115.83 263.12 114.74 262.66 114.55C261.23 113.27 261.37 111.75 261.23 111.44C261.23 109.79 262.04 108.99 262.13 108.72C263.04 107.63 264.25 107.26 264.48 107.1C265.94 106.57 267.24 106.62 267.55 106.57C269.61 106.57 270.82 107.2 271.19 107.27C272.76 107.95 273.44 108.98 273.69 109.17C274.07 109.66 274 110.07 274.03 110.17C274.02 110.68 273.56 110.95 273.5 111.04C273.07 111.36 272.55 111.23 272.45 111.25C271.82 111.13 271.49 110.77 271.39 110.72C270.62 109.89 269.84 109.67 269.67 109.55C268.74 109.21 267.71 109.24 267.5 109.21C266 109.21 265.28 109.72 265.03 109.78C264.06 110.34 264.16 111.17 264.06 111.32C264.06 111.95 264.36 112.34 264.39 112.45C264.72 112.94 265.48 113.25 265.6 113.34C266.49 113.72 267.95 113.97 268.21 114.04C270.55 114.49 271.53 115.13 271.9 115.25C273.27 116 273.64 116.81 273.83 116.98C274.42 117.96 274.36 118.98 274.42 119.21C274.42 120.73 273.69 121.63 273.61 121.9C272.83 123.07 271.58 123.57 271.35 123.75C270.36 124.21 269.15 124.43 267.72 124.43C265.37 124.02 264.07 123.8 263.81 123.75ZM281.86 123.3C279.87 122.15 279.05 120.45 278.74 120.13C277.63 118.11 277.74 115.97 277.63 115.51C277.63 112.87 278.58 111.33 278.68 110.87C279.74 108.85 281.33 108.04 281.62 107.72C283.51 106.57 285.5 106.68 285.93 106.57C288.34 106.57 289.68 107.57 290.1 107.68C291.85 108.8 292.51 110.43 292.78 110.74C293.73 112.68 293.64 114.78 293.73 115.23C293.73 115.81 293.39 116.09 293.35 116.19C293.1 116.43 292.78 116.55 292.38 116.55L279.62 116.55L279.62 114.13L292.42 114.13C291.63 114.69 291.19 115 291.1 115.06C291.1 113.36 290.54 112.32 290.48 112.02C289.86 110.68 288.89 110.12 288.71 109.91C287.56 109.13 286.21 109.21 285.93 109.13C284.16 109.13 283.17 109.88 282.87 109.96C281.57 110.78 281.09 112 280.89 112.23C280.24 113.68 280.3 115.18 280.24 115.51C280.24 117.36 280.94 118.46 281.02 118.79C281.83 120.21 282.99 120.81 283.21 121.04C284.6 121.85 286.09 121.77 286.41 121.85C287.43 121.85 288.27 121.51 288.47 121.47C289.51 121.07 290 120.66 290.17 120.56C290.61 120.24 291.01 120.26 291.1 120.23C291.61 120.21 291.89 120.5 291.98 120.53C292.49 120.98 292.46 121.43 292.51 121.53C292.54 122.06 292.1 122.34 292.05 122.43C291.01 123.3 289.69 123.72 289.42 123.87C288.36 124.24 287.36 124.43 286.41 124.43C283.68 123.75 282.16 123.38 281.86 123.3ZM313.43 123.68C311.17 122.72 309.92 121.25 309.53 120.98C307.9 119.24 307.23 117.31 306.97 116.91C306.06 114.55 306.15 112.24 306.06 111.72C306.06 108.93 306.88 107.08 306.97 106.57C307.9 104.21 309.27 102.89 309.53 102.48C311.17 100.74 313.04 100.07 313.43 99.8C315.72 98.86 317.95 98.95 318.46 98.86C321.18 98.86 322.94 99.7 323.44 99.8C325.72 100.74 326.98 102.21 327.37 102.48C329.03 104.21 329.69 106.16 329.94 106.57C330.86 108.93 330.76 111.2 330.86 111.72C330.86 114.55 330.03 116.39 329.94 116.91C329.03 119.24 327.63 120.57 327.37 120.98C325.72 122.72 323.83 123.41 323.44 123.68C321.93 124.31 320.27 124.62 318.46 124.62C315.44 124.05 313.77 123.74 313.43 123.68ZM322.25 121.06C324.01 120.28 325 119.14 325.3 118.92C326.6 117.55 327.08 116.04 327.28 115.72C327.97 113.87 327.9 112.12 327.97 111.72C327.97 109.59 327.35 108.14 327.28 107.74C326.6 105.89 325.5 104.85 325.3 104.53C324.01 103.16 322.56 102.61 322.25 102.4C320.52 101.65 318.84 101.72 318.46 101.65C316.37 101.65 315 102.33 314.62 102.4C312.89 103.16 311.93 104.32 311.63 104.53C310.37 105.89 309.83 107.42 309.64 107.74C308.92 109.59 308.99 111.32 308.92 111.72C308.92 113.87 309.56 115.32 309.64 115.72C310.37 117.55 311.43 118.6 311.63 118.92C312.89 120.28 314.32 120.84 314.62 121.06C315.79 121.57 317.07 121.83 318.46 121.83C320.74 121.36 322 121.11 322.25 121.06ZM336.56 123.88C336.28 123.61 336.14 123.24 336.14 122.79C336.14 113.17 336.14 107.83 336.14 106.76C336.14 104.48 336.89 103.18 336.98 102.78C337.82 101.06 339.11 100.38 339.35 100.12C340.9 99.18 342.66 99.27 343.02 99.18C343.64 99.18 343.96 99.53 344.06 99.57C344.48 99.95 344.44 100.42 344.48 100.52C344.48 101.1 344.11 101.41 344.06 101.51C343.64 101.91 343.13 101.87 343.02 101.91C341.76 101.91 341.08 102.44 340.87 102.5C339.99 103.06 339.65 103.94 339.52 104.1C339.21 104.78 339.06 105.58 339.06 106.51C339.06 116.28 339.06 121.71 339.06 122.79C339.06 123.47 338.7 123.78 338.66 123.88C338.39 124.16 338.01 124.3 337.53 124.3C336.94 124.05 336.62 123.91 336.56 123.88ZM333.6 109.55C333.23 109.17 333.27 108.75 333.23 108.66C333.23 108.04 333.56 107.8 333.6 107.7C333.85 107.46 334.18 107.34 334.57 107.34C339.28 107.34 341.9 107.34 342.42 107.34C343.02 107.34 343.29 107.67 343.39 107.7C343.77 108.04 343.73 108.57 343.77 108.66C343.77 109.17 343.43 109.46 343.39 109.55C343.14 109.79 342.82 109.91 342.42 109.91L334.57 109.91C333.99 109.69 333.66 109.57 333.6 109.55ZM362.65 123.64C360.46 122.66 359.2 121.16 358.82 120.89C357.19 119.11 356.5 117.18 356.24 116.77C355.31 114.42 355.4 112.22 355.31 111.72C355.31 109.04 356.13 107.22 356.22 106.72C357.16 104.38 358.54 103.02 358.8 102.61C360.46 100.84 362.25 100.13 362.63 99.85C364.83 98.86 366.91 98.96 367.38 98.86C369.74 98.86 371.08 99.45 371.49 99.52C373.26 100.18 374.66 101.43 375.02 101.65C375.25 101.84 375.33 102.04 375.36 102.08C375.47 102.33 375.45 102.5 375.45 102.55C375.45 102.78 375.39 102.98 375.38 103.02C375.34 103.51 375.02 103.75 374.98 103.83C374.63 104.16 374.21 104.14 374.12 104.17C373.61 104.19 373.23 103.83 373.14 103.8C371.95 102.74 370.9 102.35 370.65 102.19C369.37 101.65 367.71 101.7 367.38 101.65C365.48 101.65 364.16 102.38 363.8 102.46C362.14 103.25 361.17 104.43 360.88 104.65C359.62 106.02 359.09 107.53 358.89 107.85C358.18 109.66 358.25 111.33 358.18 111.72C358.18 113.81 358.82 115.25 358.89 115.64C359.62 117.47 360.68 118.54 360.88 118.87C362.14 120.24 363.51 120.8 363.8 121.02C365.48 121.79 367.02 121.71 367.38 121.79C369.03 121.79 370.16 121.28 370.47 121.23C371.93 120.66 372.98 119.8 373.26 119.64C373.76 119.24 374.15 119.34 374.25 119.3C374.76 119.34 375.02 119.67 375.11 119.72C375.47 120.09 375.44 120.63 375.47 120.73C375.47 121.06 375.39 121.28 375.38 121.34C375.29 121.6 375.05 121.78 375.02 121.83C373.39 123.26 371.79 123.73 371.44 123.94C370.15 124.39 368.79 124.62 367.38 124.62C364.54 124.03 362.97 123.7 362.65 123.64ZM372.61 120.15L372.61 114.13C369.92 114.13 368.43 114.13 368.13 114.13C367.47 114.13 367.16 113.79 367.05 113.76C366.63 113.36 366.68 112.87 366.63 112.78C366.63 112.21 367.01 111.93 367.05 111.83C367.33 111.57 367.69 111.44 368.13 111.44C371.66 111.44 373.62 111.44 374.01 111.44C374.67 111.44 374.96 111.81 375.07 111.85C375.34 112.13 375.47 112.49 375.47 112.94L375.47 120.73L372.61 120.15ZM382.43 123.3C380.44 122.15 379.62 120.45 379.31 120.13C378.19 118.11 378.3 115.97 378.19 115.51C378.19 112.87 379.14 111.33 379.25 110.87C380.31 108.85 381.9 108.04 382.19 107.72C384.07 106.57 386.07 106.68 386.5 106.57C388.91 106.57 390.25 107.57 390.66 107.68C392.42 108.8 393.08 110.43 393.35 110.74C394.3 112.68 394.2 114.78 394.3 115.23C394.3 115.81 393.95 116.09 393.91 116.19C393.67 116.43 393.35 116.55 392.95 116.55L380.18 116.55L380.18 114.13L392.98 114.13C392.19 114.69 391.76 115 391.67 115.06C391.67 113.36 391.11 112.32 391.05 112.02C390.43 110.68 389.45 110.12 389.28 109.91C388.13 109.13 386.78 109.21 386.5 109.13C384.73 109.13 383.74 109.88 383.43 109.96C382.14 110.78 381.66 112 381.46 112.23C380.8 113.68 380.87 115.18 380.8 115.51C380.8 117.36 381.51 118.46 381.59 118.79C382.39 120.21 383.56 120.81 383.78 121.04C385.17 121.85 386.66 121.77 386.98 121.85C388 121.85 388.83 121.51 389.04 121.47C390.08 121.07 390.57 120.66 390.74 120.56C391.18 120.24 391.58 120.26 391.67 120.23C392.18 120.21 392.46 120.5 392.55 120.53C393.06 120.98 393.02 121.43 393.07 121.53C393.11 122.06 392.66 122.34 392.62 122.43C391.58 123.3 390.25 123.72 389.99 123.87C388.93 124.24 387.92 124.43 386.98 124.43C384.25 123.75 382.73 123.38 382.43 123.3ZM401.09 123.3C399.1 122.15 398.28 120.45 397.97 120.13C396.85 118.11 396.96 115.97 396.85 115.51C396.85 112.87 397.81 111.33 397.91 110.87C398.97 108.85 400.56 108.04 400.85 107.72C402.73 106.57 404.73 106.68 405.16 106.57C407.57 106.57 408.91 107.57 409.33 107.68C411.08 108.8 411.74 110.43 412.01 110.74C412.96 112.68 412.86 114.78 412.96 115.23C412.96 115.81 412.61 116.09 412.58 116.19C412.33 116.43 412.01 116.55 411.61 116.55L398.84 116.55L398.84 114.13L411.64 114.13C410.86 114.69 410.42 115 410.33 115.06C410.33 113.36 409.77 112.32 409.71 112.02C409.09 110.68 408.11 110.12 407.94 109.91C406.79 109.13 405.44 109.21 405.16 109.13C403.39 109.13 402.4 109.88 402.09 109.96C400.8 110.78 400.32 112 400.12 112.23C399.46 113.68 399.53 115.18 399.46 115.51C399.46 117.36 400.17 118.46 400.25 118.79C401.05 120.21 402.22 120.81 402.44 121.04C403.83 121.85 405.32 121.77 405.64 121.85C406.66 121.85 407.49 121.51 407.7 121.47C408.74 121.07 409.23 120.66 409.4 120.56C409.84 120.24 410.24 120.26 410.33 120.23C410.84 120.21 411.12 120.5 411.21 120.53C411.72 120.98 411.68 121.43 411.74 121.53C411.77 122.06 411.33 122.34 411.28 122.43C410.24 123.3 408.91 123.72 408.65 123.87C407.59 124.24 406.59 124.43 405.64 124.43C402.91 123.75 401.39 123.38 401.09 123.3ZM417.87 116.04C423.84 110.53 427.16 107.46 427.82 106.85C428.25 106.44 428.66 106.5 428.76 106.46C429.29 106.48 429.56 106.88 429.65 106.93C430.05 107.38 430 107.81 430.03 107.91C430.03 108.26 429.89 108.58 429.6 108.85L419.66 118.06L417.87 116.04ZM417.4 123.9C417.14 123.63 417.01 123.27 417.01 122.85C417.01 109.5 417.01 102.09 417.01 100.61C417.01 99.97 417.36 99.68 417.4 99.57C417.78 99.18 418.3 99.22 418.4 99.18C419.06 99.18 419.34 99.53 419.44 99.57C419.71 99.84 419.84 100.18 419.84 100.61C419.84 113.95 419.84 121.36 419.84 122.85C419.84 123.49 419.48 123.8 419.44 123.9C419.19 124.17 418.84 124.3 418.4 124.3C417.8 124.06 417.46 123.93 417.4 123.9ZM428.65 124.47C428.28 124.44 427.97 124.27 427.72 123.94L421.21 115.64L423.2 113.72C427.2 118.79 429.43 121.6 429.87 122.17C430.25 122.62 430.17 123.07 430.2 123.17C430.16 123.53 429.99 123.85 429.69 124.13C429.06 124.33 428.72 124.45 428.65 124.47ZM436.96 123.75C435.14 123.07 434.37 122.12 434.08 121.94C433.64 121.47 433.75 120.99 433.71 120.89C433.8 120.28 434.24 119.99 434.3 119.89C434.86 119.43 435.3 119.55 435.41 119.51C435.98 119.57 436.27 119.97 436.36 120.02C436.98 120.73 437.97 121.12 438.15 121.24C439.34 121.75 440.55 121.7 440.82 121.75C442.77 121.75 443.45 121.16 443.74 121.09C444.72 120.41 444.66 119.55 444.76 119.38C444.76 118.34 443.89 117.8 443.79 117.62C442.83 116.91 440.74 116.57 440.4 116.45C437.26 115.83 436.27 114.74 435.81 114.55C434.39 113.27 434.53 111.75 434.39 111.44C434.39 109.79 435.19 108.99 435.28 108.72C436.2 107.63 437.4 107.26 437.64 107.1C439.1 106.57 440.4 106.62 440.71 106.57C442.77 106.57 443.98 107.2 444.34 107.27C445.91 107.95 446.59 108.98 446.84 109.17C447.23 109.66 447.16 110.07 447.19 110.17C447.17 110.68 446.71 110.95 446.66 111.04C446.22 111.36 445.71 111.23 445.6 111.25C444.98 111.13 444.65 110.77 444.54 110.72C443.78 109.89 443 109.67 442.83 109.55C441.89 109.21 440.87 109.24 440.65 109.21C439.15 109.21 438.43 109.72 438.19 109.78C437.22 110.34 437.32 111.17 437.22 111.32C437.22 111.95 437.52 112.34 437.55 112.45C437.88 112.94 438.63 113.25 438.75 113.34C439.65 113.72 441.1 113.97 441.36 114.04C443.7 114.49 444.68 115.13 445.05 115.25C446.42 116 446.8 116.81 446.99 116.98C447.57 117.96 447.52 118.98 447.57 119.21C447.57 120.73 446.85 121.63 446.77 121.9C445.98 123.07 444.73 123.57 444.51 123.75C443.52 124.21 442.31 124.43 440.87 124.43C438.53 124.02 437.22 123.8 436.96 123.75Z" id="af7VziQcg"></path><path d="M143.17 486.23L548.57 486.23L548.57 548.24L143.17 548.24L143.17 486.23Z" id="a1WIl3J9V6"></path><path d="M165.3 534.89C162.56 533.67 161 531.8 160.52 531.46C158.47 529.25 157.63 526.83 157.3 526.31C156.14 523.37 156.25 520.63 156.14 519.99C156.14 516.65 157.17 514.37 157.29 513.75C158.44 510.83 160.18 509.13 160.5 508.62C162.56 506.39 164.81 505.5 165.29 505.15C168.02 503.9 170.63 504.03 171.22 503.9C174.18 503.9 175.86 504.65 176.37 504.73C178.58 505.55 180.31 507.13 180.75 507.39C181.06 507.64 181.15 507.89 181.19 507.94C181.34 508.24 181.31 508.47 181.32 508.53C181.3 508.81 181.24 509.07 181.23 509.13C181.19 509.73 180.78 510.03 180.73 510.13C180.3 510.51 179.75 510.5 179.64 510.54C179 510.58 178.54 510.14 178.42 510.09C176.94 508.77 175.62 508.29 175.31 508.09C173.7 507.39 171.63 507.46 171.22 507.39C168.85 507.39 167.21 508.31 166.76 508.41C164.68 509.41 163.46 510.87 163.09 511.15C161.52 512.86 160.88 514.75 160.63 515.15C159.73 517.41 159.82 519.51 159.73 519.99C159.73 522.61 160.54 524.42 160.63 524.92C161.52 527.2 162.85 528.53 163.09 528.93C164.68 530.65 166.4 531.36 166.76 531.63C168.85 532.59 170.77 532.5 171.22 532.59C173.28 532.59 174.7 531.96 175.09 531.89C176.9 531.18 178.23 530.1 178.58 529.9C179.2 529.41 179.7 529.52 179.82 529.48C180.44 529.54 180.78 529.96 180.88 530.01C181.34 530.46 181.29 531.13 181.34 531.25C181.34 531.67 181.21 531.93 181.19 532.01C181.06 532.35 180.8 532.57 180.75 532.63C178.69 534.44 176.73 535.02 176.28 535.29C174.67 535.84 172.99 536.12 171.22 536.12C167.67 535.38 165.7 534.98 165.3 534.89ZM190.03 534.46C187.54 533.03 186.52 530.91 186.14 530.52C184.73 527.99 184.87 525.32 184.73 524.75C184.73 521.45 185.91 519.52 186.04 518.94C187.38 516.41 189.36 515.39 189.73 514.99C192.09 513.56 194.6 513.7 195.14 513.56C198.13 513.56 199.81 514.82 200.33 514.96C202.53 516.33 203.37 518.39 203.7 518.77C204.87 521.2 204.76 523.81 204.87 524.37C204.87 525.1 204.44 525.46 204.4 525.58C204.09 525.88 203.69 526.03 203.19 526.03L187.23 526.03L187.23 523.01L203.23 523.01C202.25 523.71 201.71 524.1 201.6 524.18C201.6 522.05 200.9 520.77 200.82 520.39C200.05 518.71 198.83 518.01 198.61 517.75C197.17 516.77 195.49 516.87 195.14 516.77C192.91 516.77 191.67 517.7 191.29 517.81C189.68 518.82 189.08 520.35 188.84 520.63C188 522.45 188.08 524.34 188 524.75C188 527.03 188.89 528.41 188.98 528.82C189.99 530.61 191.45 531.37 191.72 531.65C193.46 532.67 195.32 532.57 195.72 532.67C197 532.67 198.04 532.24 198.3 532.2C199.61 531.71 200.22 531.18 200.43 531.06C200.98 530.65 201.49 530.67 201.6 530.63C202.22 530.61 202.59 530.97 202.7 531.01C203.32 531.57 203.29 532.13 203.36 532.25C203.39 532.91 202.83 533.27 202.77 533.38C201.48 534.48 199.81 535.01 199.48 535.2C198.17 535.66 196.92 535.89 195.72 535.89C192.3 535.03 190.41 534.56 190.03 534.46ZM212.8 517.67C213.95 515.73 215.56 514.91 215.87 514.6C217.81 513.47 219.68 513.58 220.11 513.47C222.25 513.47 223 514.11 223.32 514.18C224.42 514.88 224.11 515.76 224.2 515.94C224.03 516.48 223.76 516.68 223.71 516.77C223.38 517.05 222.98 517.07 222.9 517.11C222.45 517.15 222 517.02 221.9 517.01C219.49 516.62 218.02 517.13 217.59 517.15C215.71 517.65 214.91 518.74 214.61 518.92C213.88 519.75 213.52 520.79 213.52 522.05L211.62 522.05C212.33 519.42 212.72 517.96 212.8 517.67ZM210.39 535.27C210.09 534.96 209.94 534.49 209.94 533.88C209.94 522.89 209.94 516.78 209.94 515.56C209.94 514.67 210.35 514.34 210.39 514.2C210.87 513.71 211.59 513.76 211.73 513.71C212.62 513.71 212.93 514.14 213.06 514.18C213.36 514.49 213.52 514.94 213.52 515.56C213.52 526.55 213.52 532.65 213.52 533.88C213.52 534.76 213.11 535.11 213.06 535.25C212.77 535.57 212.32 535.72 211.73 535.72C210.93 535.45 210.48 535.3 210.39 535.27ZM232.9 534.71C231.33 533.67 230.65 532.21 230.4 531.93C229.79 530.76 229.48 529.42 229.48 527.92C229.48 516.3 229.48 509.85 229.48 508.56C229.48 507.77 229.94 507.37 230 507.24C230.51 506.71 231.15 506.77 231.27 506.71C232.1 506.71 232.47 507.19 232.61 507.24C232.95 507.59 233.12 508.03 233.12 508.56C233.12 520.17 233.12 526.62 233.12 527.92C233.12 529.69 233.97 530.56 234.07 530.86C234.7 531.64 235.5 532.03 236.46 532.03C237.21 532.03 237.62 532.03 237.7 532.03C238.38 532.03 238.71 532.5 238.82 532.55C239.27 533.06 239.23 533.74 239.27 533.88C239.27 534.69 238.75 535.08 238.69 535.21C238.3 535.55 237.81 535.72 237.21 535.72L236.46 535.72C234.32 535.11 233.14 534.77 232.9 534.71ZM226.25 517.28C225.8 516.81 225.84 516.28 225.8 516.16C225.8 515.41 226.21 515.09 226.25 514.98C226.57 514.67 226.97 514.52 227.46 514.52C233.05 514.52 236.15 514.52 236.77 514.52C237.52 514.52 237.86 514.93 237.98 514.98C238.45 515.41 238.4 516.05 238.45 516.16C238.45 516.81 238.02 517.17 237.98 517.28C237.67 517.59 237.27 517.75 236.77 517.75L227.46 517.75C226.73 517.47 226.33 517.31 226.25 517.28ZM245.1 535.21C244.78 534.86 244.61 534.4 244.61 533.84C244.61 522.91 244.61 516.83 244.61 515.62C244.61 514.77 245.06 514.38 245.1 514.24C245.62 513.71 246.3 513.77 246.44 513.71C247.26 513.71 247.62 514.19 247.75 514.24C248.09 514.59 248.26 515.05 248.26 515.62C248.26 526.55 248.26 532.62 248.26 533.84C248.26 534.69 247.8 535.08 247.75 535.21C247.42 535.55 246.99 535.72 246.44 535.72C245.64 535.42 245.19 535.25 245.1 535.21ZM245.01 509.2C244.3 508.45 244.37 507.63 244.3 507.45C244.3 506.36 244.94 505.84 245.01 505.66C245.73 504.94 246.54 505.01 246.71 504.94C247.68 504.94 248.22 505.59 248.39 505.66C249.12 506.36 249.05 507.27 249.12 507.45C249.12 508.45 248.48 509.03 248.41 509.2C247.95 509.69 247.38 509.94 246.71 509.94C245.69 509.5 245.13 509.25 245.01 509.2ZM256.93 535.18C256.58 534.81 256.4 534.37 256.4 533.84C256.4 521.76 256.4 515.05 256.4 513.71C256.4 510.83 257.37 509.18 257.48 508.68C258.56 506.51 260.52 505.62 260.86 505.28C263.18 504.06 266.35 504.18 266.96 504.06C268.71 504.06 269.78 504.45 270.1 504.49C271.49 504.9 272.07 505.52 272.29 505.64C273.11 506.36 273.03 507.22 273.11 507.39C273.11 509.13 271.29 508.96 271.08 509.13C270.32 509.13 269.85 508.82 269.71 508.79C269.11 508.45 268.61 508.06 268.49 507.98C267.89 507.49 267.32 507.21 267.19 507.13C266.5 506.75 265.72 506.79 265.55 506.75C264.07 506.75 263.1 507.3 262.83 507.36C261.59 507.96 261.02 509.27 260.82 509.49C260.32 510.51 260.07 511.91 260.07 513.71C260.07 525.79 260.07 532.5 260.07 533.84C260.07 534.63 259.6 535.04 259.54 535.18C259.19 535.54 258.75 535.72 258.23 535.72C257.45 535.4 257.02 535.21 256.93 535.18ZM253.24 517.28C252.79 516.81 252.83 516.28 252.79 516.16C252.79 515.41 253.2 515.09 253.24 514.98C253.56 514.67 253.97 514.52 254.47 514.52C260.37 514.52 263.65 514.52 264.31 514.52C265.06 514.52 265.39 514.93 265.51 514.98C265.99 515.41 265.94 516.05 265.99 516.16C265.99 516.81 265.56 517.17 265.51 517.28C265.21 517.59 264.81 517.75 264.31 517.75L254.47 517.75C253.73 517.47 253.32 517.31 253.24 517.28ZM269.57 535.21C269.23 534.86 269.06 534.4 269.06 533.84C269.06 522.91 269.06 516.83 269.06 515.62C269.06 514.77 269.52 514.38 269.57 514.24C270.08 513.71 270.77 513.77 270.9 513.71C271.71 513.71 272.09 514.19 272.22 514.24C272.56 514.59 272.73 515.05 272.73 515.62C272.73 526.55 272.73 532.62 272.73 533.84C272.73 534.69 272.27 535.08 272.22 535.21C271.88 535.55 271.44 535.72 270.9 535.72C270.1 535.42 269.66 535.25 269.57 535.21ZM284.1 534.42C281.69 532.95 280.68 530.84 280.3 530.44C278.92 527.92 279.06 525.32 278.92 524.75C278.92 521.48 280.12 519.53 280.25 518.96C281.6 516.41 283.59 515.39 283.96 514.99C286.33 513.56 288.82 513.7 289.36 513.56C291.7 513.56 293.19 514.39 293.62 514.49C295.55 515.41 296.72 516.98 297.07 517.26C297.58 517.82 297.4 518.34 297.43 518.47C297.31 519.11 296.73 519.48 296.65 519.6C296.14 519.96 295.65 519.82 295.53 519.84C294.93 519.71 294.53 519.25 294.42 519.18C292.39 516.9 289.87 517.13 289.36 516.9C287.3 516.9 286.09 517.78 285.73 517.88C284.18 518.86 283.54 520.36 283.3 520.63C282.42 522.41 282.51 524.34 282.42 524.75C282.42 526.99 283.24 528.35 283.34 528.74C284.25 530.5 285.62 531.24 285.87 531.52C287.5 532.54 289.26 532.43 289.64 532.54C291.04 532.54 291.89 532.21 292.14 532.18C293.25 531.82 293.95 531.13 294.15 531.01C294.73 530.54 295.21 530.55 295.33 530.5C295.94 530.46 296.3 530.82 296.41 530.86C297.03 531.39 297.02 531.93 297.09 532.05C297.14 532.71 296.69 533.08 296.65 533.2C294.77 534.99 292.44 535.89 289.64 535.89C286.32 535.01 284.47 534.52 284.1 534.42ZM307.2 534.44C304.9 532.99 303.93 530.86 303.56 530.46C302.25 527.92 302.38 525.32 302.25 524.75C302.25 521.52 303.53 519.59 303.67 519.01C305.1 516.48 307.14 515.43 307.53 515.03C309.97 513.56 312.46 513.71 313 513.56C316.07 513.56 317.94 514.89 318.48 515.03C320.91 516.48 321.95 518.63 322.34 519.03C323.29 520.72 323.76 522.62 323.76 524.75C322.92 524.94 322.45 525.05 322.35 525.07C322.35 528.12 321.17 530.02 321.04 530.57C319.74 533.03 317.85 534.07 317.5 534.46C316.01 535.42 314.31 535.89 312.38 535.89C309.27 535.02 307.54 534.54 307.2 534.44ZM316.71 531.52C318.34 530.5 319.03 529.01 319.29 528.73C320.25 526.95 320.16 525.14 320.25 524.75C320.25 522.48 319.38 521.13 319.29 520.73C318.34 518.96 316.97 518.22 316.71 517.94C315.11 516.9 313.38 517 313 516.9C310.98 516.9 309.68 517.83 309.32 517.94C307.67 518.96 306.97 520.45 306.7 520.73C305.75 522.48 305.85 524.34 305.75 524.75C305.75 526.95 306.61 528.33 306.7 528.73C307.67 530.5 309.05 531.24 309.32 531.52C310.42 532.2 311.65 532.54 313 532.54C315.23 531.93 316.46 531.59 316.71 531.52ZM320.62 535.23C320.27 534.87 320.09 534.42 320.09 533.88L320.09 527.48L320.84 523.58L323.76 524.75C323.76 530.22 323.76 533.27 323.76 533.88C323.76 534.69 323.3 535.1 323.25 535.23C322.91 535.59 322.46 535.76 321.92 535.76C321.14 535.44 320.71 535.27 320.62 535.23ZM334.06 534.71C332.49 533.67 331.81 532.21 331.56 531.93C330.95 530.76 330.64 529.42 330.64 527.92C330.64 516.3 330.64 509.85 330.64 508.56C330.64 507.77 331.1 507.37 331.16 507.24C331.67 506.71 332.31 506.77 332.43 506.71C333.26 506.71 333.63 507.19 333.77 507.24C334.11 507.59 334.28 508.03 334.28 508.56C334.28 520.17 334.28 526.62 334.28 527.92C334.28 529.69 335.13 530.56 335.23 530.86C335.86 531.64 336.66 532.03 337.62 532.03C338.37 532.03 338.78 532.03 338.86 532.03C339.54 532.03 339.86 532.5 339.98 532.55C340.43 533.06 340.39 533.74 340.43 533.88C340.43 534.69 339.91 535.08 339.85 535.21C339.46 535.55 338.97 535.72 338.37 535.72L337.62 535.72C335.48 535.11 334.3 534.77 334.06 534.71ZM327.41 517.28C326.96 516.81 327 516.28 326.96 516.16C326.96 515.41 327.37 515.09 327.41 514.98C327.73 514.67 328.13 514.52 328.62 514.52C334.21 514.52 337.31 514.52 337.93 514.52C338.68 514.52 339.02 514.93 339.14 514.98C339.61 515.41 339.56 516.05 339.61 516.16C339.61 516.81 339.18 517.17 339.14 517.28C338.83 517.59 338.43 517.75 337.93 517.75L328.62 517.75C327.89 517.47 327.49 517.31 327.41 517.28ZM349.5 534.46C347.01 533.03 346 530.91 345.61 530.52C344.2 527.99 344.34 525.32 344.2 524.75C344.2 521.45 345.38 519.52 345.52 518.94C346.85 516.41 348.84 515.39 349.2 514.99C351.56 513.56 354.07 513.7 354.61 513.56C357.6 513.56 359.28 514.82 359.8 514.96C362.01 516.33 362.84 518.39 363.17 518.77C364.34 521.2 364.23 523.81 364.34 524.37C364.34 525.1 363.92 525.46 363.87 525.58C363.56 525.88 363.16 526.03 362.66 526.03L346.7 526.03L346.7 523.01L362.7 523.01C361.72 523.71 361.18 524.1 361.07 524.18C361.07 522.05 360.37 520.77 360.29 520.39C359.52 518.71 358.3 518.01 358.08 517.75C356.64 516.77 354.96 516.87 354.61 516.77C352.38 516.77 351.14 517.7 350.76 517.81C349.15 518.82 348.55 520.35 348.31 520.63C347.47 522.45 347.55 524.34 347.47 524.75C347.47 527.03 348.36 528.41 348.46 528.82C349.46 530.61 350.92 531.37 351.19 531.65C352.93 532.67 354.79 532.57 355.19 532.67C356.47 532.67 357.51 532.24 357.77 532.2C359.08 531.71 359.69 531.18 359.91 531.06C360.45 530.65 360.96 530.67 361.07 530.63C361.7 530.61 362.06 530.97 362.17 531.01C362.79 531.57 362.76 532.13 362.83 532.25C362.86 532.91 362.3 533.27 362.24 533.38C360.95 534.48 359.28 535.01 358.96 535.2C357.64 535.66 356.39 535.89 355.19 535.89C351.78 535.03 349.88 534.56 349.5 534.46ZM381.73 535.18C381.38 534.81 381.2 534.35 381.2 533.8C381.2 517.27 381.2 508.08 381.2 506.24C381.2 505.39 381.68 504.99 381.73 504.85C382.09 504.48 382.54 504.3 383.09 504.3C393.76 504.3 399.69 504.3 400.87 504.3C401.69 504.3 402.07 504.76 402.21 504.81C402.72 505.3 402.67 505.98 402.72 506.11C402.72 506.88 402.26 507.27 402.21 507.39C401.86 507.72 401.42 507.88 400.87 507.88L384.91 507.88L384.91 518.11C391.83 518.11 395.67 518.11 396.43 518.11C397.26 518.11 397.63 518.57 397.77 518.62C398.28 519.11 398.23 519.79 398.28 519.92C398.28 520.67 397.82 521.06 397.77 521.18C397.43 521.52 396.98 521.69 396.43 521.69L384.91 521.69L384.91 532.14C394.49 532.14 399.81 532.14 400.87 532.14C401.69 532.14 402.07 532.6 402.21 532.65C402.72 533.14 402.67 533.79 402.72 533.91C402.72 534.72 402.26 535.1 402.21 535.23C401.86 535.56 401.42 535.72 400.87 535.72L383.09 535.72C382.27 535.4 381.82 535.21 381.73 535.18ZM424.73 535.23C424.38 534.87 424.21 534.42 424.21 533.88C424.21 527.82 424.21 524.46 424.21 523.78C424.21 521.45 423.45 520.32 423.37 519.94C422.54 518.43 421.31 517.92 421.08 517.69C419.62 516.94 418.11 517.01 417.78 516.94C416.02 516.94 414.95 517.6 414.64 517.67C413.27 518.39 412.66 519.4 412.44 519.6C411.9 520.4 411.62 521.31 411.62 522.33C410.2 522.33 409.41 522.33 409.25 522.33C409.29 519.79 410.37 518.26 410.49 517.81C411.71 515.81 413.45 514.99 413.78 514.67C415.84 513.52 417.95 513.64 418.42 513.52C421.1 513.52 422.76 514.59 423.24 514.71C425.37 515.88 426.28 517.84 426.62 518.18C427.46 519.72 427.88 521.58 427.88 523.78C427.88 529.84 427.88 533.2 427.88 533.88C427.88 534.69 427.4 535.1 427.35 535.23C426.99 535.59 426.56 535.76 426.05 535.76C425.26 535.44 424.82 535.27 424.73 535.23ZM408.46 535.23C408.13 534.87 407.97 534.42 407.97 533.88C407.97 522.92 407.97 516.83 407.97 515.62C407.97 514.77 408.41 514.38 408.46 514.24C408.97 513.71 409.66 513.77 409.8 513.71C410.62 513.71 410.98 514.19 411.11 514.24C411.45 514.59 411.62 515.05 411.62 515.62C411.62 526.57 411.62 532.66 411.62 533.88C411.62 534.69 411.16 535.1 411.11 535.23C410.78 535.59 410.34 535.76 409.8 535.76C409 535.44 408.55 535.27 408.46 535.23ZM438.26 534.46C435.97 533.03 435.02 530.91 434.66 530.52C433.36 527.99 433.49 525.32 433.36 524.75C433.36 521.45 434.61 519.52 434.75 518.94C436.14 516.41 438.19 515.39 438.57 514.99C441 513.56 443.56 513.7 444.12 513.56C447.28 513.56 449.13 514.85 449.69 514.99C452.1 516.41 453.11 518.54 453.49 518.94C454.41 520.61 454.87 522.55 454.87 524.75C453.6 524.94 452.9 525.05 452.76 525.07C452.76 528.24 451.69 530.11 451.57 530.67C450.38 533.1 448.63 534.11 448.3 534.5C446.91 535.43 445.31 535.89 443.5 535.89C440.35 535.03 438.61 534.56 438.26 534.46ZM438.84 543.55C436.45 542.4 435.24 540.6 434.84 540.27C434.35 539.67 434.5 539.13 434.46 539.01C434.57 538.35 435.08 538 435.15 537.89C435.77 537.46 436.35 537.64 436.49 537.61C437.22 537.78 437.54 538.27 437.65 538.35C438.75 539.74 440.12 540.33 440.39 540.55C442.06 541.36 443.78 541.28 444.16 541.36C446.15 541.36 447.41 540.46 447.77 540.36C449.41 539.38 450.12 537.82 450.38 537.53C451.04 536.3 451.37 534.8 451.37 533.03L451.37 527.2L452.57 524.05L454.87 524.75C454.87 529.86 454.87 532.7 454.87 533.27C454.87 536.5 453.64 538.5 453.51 539.08C452.14 541.68 450.09 542.78 449.71 543.19C448.09 544.2 446.22 544.7 444.12 544.7C440.95 544.01 439.19 543.63 438.84 543.55ZM447.86 531.54C449.49 530.54 450.16 529.06 450.42 528.78C451.37 527.03 451.27 525.15 451.37 524.75C451.37 522.45 450.51 521.08 450.42 520.67C449.49 518.9 448.12 518.18 447.86 517.9C446.26 516.9 444.49 517 444.12 516.9C442.02 516.9 440.75 517.8 440.37 517.9C438.75 518.9 438.06 520.39 437.8 520.67C436.87 522.45 436.96 524.34 436.87 524.75C436.87 527.03 437.71 528.38 437.8 528.78C438.75 530.54 440.12 531.26 440.37 531.54C441.47 532.2 442.72 532.54 444.12 532.54C446.36 531.94 447.61 531.6 447.86 531.54ZM461.76 535.21C461.43 534.86 461.26 534.4 461.26 533.84C461.26 522.91 461.26 516.83 461.26 515.62C461.26 514.77 461.71 514.38 461.76 514.24C462.27 513.71 462.96 513.77 463.09 513.71C463.91 513.71 464.27 514.19 464.41 514.24C464.75 514.59 464.92 515.05 464.92 515.62C464.92 526.55 464.92 532.62 464.92 533.84C464.92 534.69 464.46 535.08 464.41 535.21C464.08 535.55 463.64 535.72 463.09 535.72C462.29 535.42 461.85 535.25 461.76 535.21ZM461.67 509.2C460.95 508.45 461.03 507.63 460.95 507.45C460.95 506.36 461.6 505.84 461.67 505.66C462.38 504.94 463.2 505.01 463.36 504.94C464.33 504.94 464.88 505.59 465.05 505.66C465.78 506.36 465.7 507.27 465.78 507.45C465.78 508.45 465.13 509.03 465.06 509.2C464.6 509.69 464.03 509.94 463.36 509.94C462.35 509.5 461.78 509.25 461.67 509.2ZM489.16 535.23C488.81 534.87 488.63 534.42 488.63 533.88C488.63 527.82 488.63 524.46 488.63 523.78C488.63 521.45 487.88 520.32 487.79 519.94C486.97 518.43 485.74 517.92 485.51 517.69C484.05 516.94 482.53 517.01 482.2 516.94C480.45 516.94 479.38 517.6 479.06 517.67C477.69 518.39 477.09 519.4 476.87 519.6C476.32 520.4 476.05 521.31 476.05 522.33C474.63 522.33 473.83 522.33 473.68 522.33C473.71 519.79 474.79 518.26 474.92 517.81C476.14 515.81 477.88 514.99 478.21 514.67C480.27 513.52 482.38 513.64 482.84 513.52C485.53 513.52 487.18 514.59 487.66 514.71C489.8 515.88 490.71 517.84 491.04 518.18C491.88 519.72 492.3 521.58 492.3 523.78C492.3 529.84 492.3 533.2 492.3 533.88C492.3 534.69 491.83 535.1 491.77 535.23C491.42 535.59 490.99 535.76 490.48 535.76C489.69 535.44 489.25 535.27 489.16 535.23ZM472.89 535.23C472.56 534.87 472.4 534.42 472.4 533.88C472.4 522.92 472.4 516.83 472.4 515.62C472.4 514.77 472.84 514.38 472.89 514.24C473.4 513.71 474.09 513.77 474.22 513.71C475.05 513.71 475.41 514.19 475.54 514.24C475.88 514.59 476.05 515.05 476.05 515.62C476.05 526.57 476.05 532.66 476.05 533.88C476.05 534.69 475.59 535.1 475.54 535.23C475.21 535.59 474.77 535.76 474.22 535.76C473.42 535.44 472.98 535.27 472.89 535.23ZM503.09 534.46C500.6 533.03 499.58 530.91 499.2 530.52C497.79 527.99 497.93 525.32 497.79 524.75C497.79 521.45 498.97 519.52 499.1 518.94C500.44 516.41 502.42 515.39 502.79 514.99C505.15 513.56 507.66 513.7 508.2 513.56C511.19 513.56 512.87 514.82 513.39 514.96C515.6 516.33 516.43 518.39 516.76 518.77C517.93 521.2 517.82 523.81 517.93 524.37C517.93 525.1 517.51 525.46 517.46 525.58C517.15 525.88 516.75 526.03 516.25 526.03L500.29 526.03L500.29 523.01L516.29 523.01C515.31 523.71 514.77 524.1 514.66 524.18C514.66 522.05 513.96 520.77 513.88 520.39C513.11 518.71 511.89 518.01 511.67 517.75C510.23 516.77 508.55 516.87 508.2 516.77C505.97 516.77 504.73 517.7 504.35 517.81C502.74 518.82 502.14 520.35 501.9 520.63C501.06 522.45 501.14 524.34 501.06 524.75C501.06 527.03 501.95 528.41 502.04 528.82C503.05 530.61 504.51 531.37 504.78 531.65C506.52 532.67 508.38 532.57 508.78 532.67C510.06 532.67 511.1 532.24 511.36 532.2C512.67 531.71 513.28 531.18 513.49 531.06C514.04 530.65 514.55 530.67 514.66 530.63C515.28 530.61 515.65 530.97 515.76 531.01C516.38 531.57 516.35 532.13 516.42 532.25C516.45 532.91 515.89 533.27 515.83 533.38C514.54 534.48 512.87 535.01 512.55 535.2C511.23 535.66 509.98 535.89 508.78 535.89C505.36 535.03 503.47 534.56 503.09 534.46Z" id="b1QRyatJtD"></path><path d="M558.05 189.22L585.15 189.22L585.15 434.8L558.05 434.8L558.05 189.22Z" id="aozYzGZg8"></path><path d="M536.15 217.31L600.82 217.31L600.82 312.01L536.15 312.01L536.15 217.31Z" id="bKEJoWOVS"></path><path d="M546.73 312.01L611.4 312.01L611.4 406.71L546.73 406.71L546.73 312.01Z" id="a4a2CRfEu"></path><path d="M546.73 269.71L619.74 269.71L619.74 383.07L546.73 383.07L546.73 269.71Z" id="bwceCZiCn"></path><path d="M538.38 237.18L611.4 237.18L611.4 350.54L538.38 350.54L538.38 237.18Z" id="a4nmRQDO4z"></path><path d="M58.82 185.13L131.83 185.13L131.83 444.55L58.82 444.55L58.82 185.13Z" id="aa12qHoPd"></path><path d="M36.59 217.31L109.61 217.31L109.61 434.8L36.59 434.8L36.59 217.31Z" id="e29n1a9gH3"></path><path d="M25.47 253.34L79.07 253.34L79.07 414.79L25.47 414.79L25.47 253.34Z" id="d4wgMIQEtb"></path><path d="M530.21 340.93L603.23 340.93L603.23 454.29L530.21 454.29L530.21 340.93Z" id="db2wj1nImC"></path><path d="M517.93 184.62L579.06 184.62L579.06 279.32L517.93 279.32L517.93 184.62Z" id="e2qd8RgRn"></path></defs><g><g><g><use xlink:href="#eFcoW3qa" opacity="1" fill="#ffffff" fill-opacity="1"></use><g><use xlink:href="#eFcoW3qa" opacity="1" fill-opacity="0" stroke="#000000" stroke-width="1" stroke-opacity="0"></use></g></g><g><use xlink:href="#fgjNii1x1" opacity="1" fill="#20124d" fill-opacity="1"></use><g><use xlink:href="#fgjNii1x1" opacity="1" fill-opacity="0" stroke="#000000" stroke-width="1" stroke-opacity="0"></use></g></g><g><use xlink:href="#b8YoTgOMV" opacity="1" fill="#000000" fill-opacity="0"></use><g><use xlink:href="#b8YoTgOMV" opacity="1" fill-opacity="0" stroke="#595959" stroke-width="1" stroke-opacity="1"></use></g></g><g><use xlink:href="#cqsKRRAB" opacity="1" fill="#ffffff" fill-opacity="1"></use><g><use xlink:href="#cqsKRRAB" opacity="1" fill-opacity="0" stroke="#000000" stroke-width="1" stroke-opacity="0"></use></g></g><g><use xlink:href="#a34pWo5sUC" opacity="1" fill="#000000" fill-opacity="0"></use><g><use xlink:href="#a34pWo5sUC" opacity="1" fill-opacity="0" stroke="#595959" stroke-width="1" stroke-opacity="1"></use></g></g><g><use xlink:href="#aDsWa1AB" opacity="1" fill="#20124d" fill-opacity="1"></use><g><use xlink:href="#aDsWa1AB" opacity="1" fill-opacity="0" stroke="#000000" stroke-width="1" stroke-opacity="0"></use></g></g><g><use xlink:href="#c2cIfVGPCI" opacity="1" fill="#000000" fill-opacity="0"></use><g><use xlink:href="#c2cIfVGPCI" opacity="1" fill-opacity="0" stroke="#595959" stroke-width="1" stroke-opacity="1"></use></g></g><g><use xlink:href="#c1Im0uEjug" opacity="1" fill="#ffffff" fill-opacity="1"></use><g><use xlink:href="#c1Im0uEjug" opacity="1" fill-opacity="0" stroke="#000000" stroke-width="1" stroke-opacity="0"></use></g></g><g><use xlink:href="#b7fXmWVZS" opacity="1" fill="#000000" fill-opacity="0"></use><g><use xlink:href="#b7fXmWVZS" opacity="1" fill-opacity="0" stroke="#595959" stroke-width="1" stroke-opacity="1"></use></g></g><g><use xlink:href="#c7QeKB5Szx" opacity="1" fill="#ffffff" fill-opacity="1"></use><g><use xlink:href="#c7QeKB5Szx" opacity="1" fill-opacity="0" stroke="#000000" stroke-width="1" stroke-opacity="0"></use></g></g><g><use xlink:href="#cICZVYKbJ" opacity="1" fill="#20124d" fill-opacity="1"></use><g><use xlink:href="#cICZVYKbJ" opacity="1" fill-opacity="0" stroke="#000000" stroke-width="1" stroke-opacity="0"></use></g></g><g><use xlink:href="#c5jxV30ZF" opacity="1" fill="#ffffff" fill-opacity="1"></use><g><use xlink:href="#c5jxV30ZF" opacity="1" fill-opacity="0" stroke="#000000" stroke-width="1" stroke-opacity="0"></use></g></g><g><use xlink:href="#a85b9wwKE" opacity="1" fill="#000000" fill-opacity="0"></use><g><use xlink:href="#a85b9wwKE" opacity="1" fill-opacity="0" stroke="#20124d" stroke-width="3" stroke-opacity="1"></use></g></g><g><use xlink:href="#ea7jEYang" opacity="1" fill="#000000" fill-opacity="0"></use><g><use xlink:href="#ea7jEYang" opacity="1" fill-opacity="0" stroke="#000000" stroke-width="1" stroke-opacity="0"></use></g></g><g><use xlink:href="#af7VziQcg" opacity="1" fill="#20124d" fill-opacity="1"></use><g><use xlink:href="#af7VziQcg" opacity="1" fill-opacity="0" stroke="#000000" stroke-width="1" stroke-opacity="0"></use></g></g><g><use xlink:href="#a1WIl3J9V6" opacity="1" fill="#000000" fill-opacity="0"></use><g><use xlink:href="#a1WIl3J9V6" opacity="1" fill-opacity="0" stroke="#000000" stroke-width="1" stroke-opacity="0"></use></g></g><g><use xlink:href="#b1QRyatJtD" opacity="1" fill="#20124d" fill-opacity="1"></use><g><use xlink:href="#b1QRyatJtD" opacity="1" fill-opacity="0" stroke="#000000" stroke-width="1" stroke-opacity="0"></use></g></g><g><use xlink:href="#aozYzGZg8" opacity="1" fill="#ffffff" fill-opacity="1"></use><g><use xlink:href="#aozYzGZg8" opacity="1" fill-opacity="0" stroke="#000000" stroke-width="1" stroke-opacity="0"></use></g></g><g><use xlink:href="#bKEJoWOVS" opacity="1" fill="#ffffff" fill-opacity="1"></use><g><use xlink:href="#bKEJoWOVS" opacity="1" fill-opacity="0" stroke="#000000" stroke-width="1" stroke-opacity="0"></use></g></g><g><use xlink:href="#a4a2CRfEu" opacity="1" fill="#ffffff" fill-opacity="1"></use><g><use xlink:href="#a4a2CRfEu" opacity="1" fill-opacity="0" stroke="#000000" stroke-width="1" stroke-opacity="0"></use></g></g><g><use xlink:href="#bwceCZiCn" opacity="1" fill="#ffffff" fill-opacity="1"></use><g><use xlink:href="#bwceCZiCn" opacity="1" fill-opacity="0" stroke="#000000" stroke-width="1" stroke-opacity="0"></use></g></g><g><use xlink:href="#a4nmRQDO4z" opacity="1" fill="#ffffff" fill-opacity="1"></use><g><use xlink:href="#a4nmRQDO4z" opacity="1" fill-opacity="0" stroke="#000000" stroke-width="1" stroke-opacity="0"></use></g></g><g><use xlink:href="#aa12qHoPd" opacity="1" fill="#ffffff" fill-opacity="1"></use><g><use xlink:href="#aa12qHoPd" opacity="1" fill-opacity="0" stroke="#000000" stroke-width="1" stroke-opacity="0"></use></g></g><g><use xlink:href="#e29n1a9gH3" opacity="1" fill="#ffffff" fill-opacity="1"></use><g><use xlink:href="#e29n1a9gH3" opacity="1" fill-opacity="0" stroke="#000000" stroke-width="1" stroke-opacity="0"></use></g></g><g><use xlink:href="#d4wgMIQEtb" opacity="1" fill="#ffffff" fill-opacity="1"></use><g><use xlink:href="#d4wgMIQEtb" opacity="1" fill-opacity="0" stroke="#000000" stroke-width="1" stroke-opacity="0"></use></g></g><g><use xlink:href="#db2wj1nImC" opacity="1" fill="#ffffff" fill-opacity="1"></use><g><use xlink:href="#db2wj1nImC" opacity="1" fill-opacity="0" stroke="#000000" stroke-width="1" stroke-opacity="0"></use></g></g><g><use xlink:href="#e2qd8RgRn" opacity="1" fill="#ffffff" fill-opacity="1"></use><g><use xlink:href="#e2qd8RgRn" opacity="1" fill-opacity="0" stroke="#000000" stroke-width="1" stroke-opacity="0"></use></g></g></g></g></svg>